<?xml version="1.0" encoding="utf-8"?>
<svg width="301.637" height="64.5" viewBox="0 0 301.637 64.5" fill="none" xmlns="http://www.w3.org/2000/svg">
  <defs>
    <clipPath id="clip_path_1">
      <rect width="67.5" height="64.5" />
    </clipPath>
    <linearGradient id="gradient_2" gradientUnits="userSpaceOnUse" x1="66.895" y1="18.495" x2="4.879" y2="43.949">
      <stop offset="0" stop-color="#FFFFFF" />
      <stop offset="0.964" stop-color="#FFFFFF" />
      <stop offset="1" stop-color="#FFFFFF" />
    </linearGradient>
  </defs>
  <g>
    <g clip-path="url(#clip_path_1)">
      <path d="M36.1959 36.8482C36.1959 36.8482 36.1959 8.02716 36.1959 8.02716C36.1959 6.90945 37.263 6.10056 38.3391 6.40256C38.3391 6.40256 66.5375 14.315 66.5375 14.315C67.2657 14.5193 67.769 15.1833 67.769 15.9396C67.769 15.9396 67.769 44.7607 67.769 44.7607C67.769 45.8784 66.7019 46.6873 65.6258 46.3853C65.6258 46.3853 37.4274 38.4729 37.4274 38.4729C36.6992 38.2685 36.1959 37.6046 36.1959 36.8482C36.1959 36.8482 36.1959 36.8482 36.1959 36.8482ZM14.9108 18.1286C14.9108 18.1286 29.4299 22.2026 29.4299 22.2026C30.5061 22.5046 31.5731 21.6957 31.5731 20.578C31.5731 20.578 31.5731 5.76245 31.5731 5.76245C31.5731 5.00606 31.0699 4.34215 30.3416 4.13776C30.3416 4.13776 15.8226 0.0637512 15.8226 0.0637512C14.7464 -0.238251 13.6793 0.570648 13.6793 1.68835C13.6793 1.68835 13.6793 16.5039 13.6793 16.5039C13.6793 17.2603 14.1826 17.9242 14.9108 18.1286C14.9108 18.1286 14.9108 18.1286 14.9108 18.1286ZM30.3416 25.6257C30.3416 25.6257 2.1433 17.7133 2.1433 17.7133C1.0671 17.4113 0 18.2202 0 19.3379C0 19.3379 0 48.1589 0 48.1589C0 48.9153 0.5033 49.5792 1.2315 49.7836C1.2315 49.7836 29.4299 57.696 29.4299 57.696C30.5061 57.998 31.5731 57.1891 31.5731 56.0714C31.5731 56.0714 31.5731 27.2502 31.5731 27.2502C31.5731 26.4939 31.0699 25.83 30.3416 25.6256C30.3416 25.6256 30.3416 25.6257 30.3416 25.6257ZM52.8582 45.97C52.8582 45.97 38.3391 41.896 38.3391 41.896C37.263 41.5939 36.1959 42.4028 36.1959 43.5206C36.1959 43.5206 36.1959 58.3361 36.1959 58.3361C36.1959 59.0924 36.6992 59.7564 37.4274 59.9607C37.4274 59.9607 51.9465 64.0348 51.9465 64.0348C53.0226 64.3367 54.0897 63.5279 54.0897 62.4101C54.0897 62.4101 54.0897 47.5946 54.0897 47.5946C54.0897 46.8383 53.5864 46.1743 52.8582 45.97C52.8582 45.97 52.8582 45.97 52.8582 45.97Z" fill="url(#gradient_2)" transform="translate(-0.269 0.244)" />
    </g>
    <path d="M10.01 24.78C7.72334 24.78 5.86833 24.4708 4.445 23.8525C3.02167 23.2342 1.95417 22.3767 1.2425 21.28C0.53083 20.1833 0.116669 18.9467 0 17.57L2.73 17.57C2.8 18.69 3.17333 19.5942 3.85 20.2825C4.52666 20.9708 5.41917 21.4783 6.5275 21.805C7.63583 22.1317 8.855 22.295 10.185 22.295C12.145 22.295 13.6967 21.9508 14.84 21.2625C15.9833 20.5742 16.555 19.5533 16.555 18.2C16.555 17.3833 16.2692 16.7242 15.6975 16.2225C15.1258 15.7208 14.3675 15.3067 13.4225 14.98C12.4775 14.6533 11.445 14.3558 10.325 14.0875C9.205 13.8192 8.07917 13.5333 6.9475 13.23C5.81583 12.9267 4.7775 12.5417 3.8325 12.075C2.8875 11.6083 2.12917 11.0075 1.5575 10.2725C0.985832 9.5375 0.699997 8.59833 0.699997 7.455C0.699997 5.565 1.42917 4.025 2.8875 2.835C4.34583 1.645 6.52167 1.05 9.415 1.05C11.4683 1.05 13.16 1.35917 14.49 1.9775C15.82 2.59583 16.8175 3.40667 17.4825 4.41C18.1475 5.41334 18.515 6.49833 18.585 7.665L15.89 7.665C15.75 6.49833 15.1667 5.5125 14.14 4.7075C13.1133 3.9025 11.5383 3.5 9.415 3.5C8.10834 3.5 7.04667 3.62834 6.23 3.885C5.41333 4.14166 4.78917 4.47416 4.3575 4.8825C3.92583 5.29083 3.63417 5.71667 3.4825 6.16C3.33083 6.60333 3.255 7.02334 3.255 7.42C3.255 8.19 3.54083 8.81417 4.1125 9.2925C4.68417 9.77083 5.4425 10.1675 6.3875 10.4825C7.3325 10.7975 8.37667 11.0833 9.52 11.34C10.6633 11.5967 11.8008 11.8825 12.9325 12.1975C14.0642 12.5125 15.1025 12.9092 16.0475 13.3875C16.9925 13.8658 17.7508 14.4783 18.3225 15.225C18.8942 15.9717 19.18 16.9283 19.18 18.095C19.18 20.2417 18.3633 21.8925 16.73 23.0475C15.0967 24.2025 12.8567 24.78 10.01 24.78L10.01 24.78ZM32.45 24.78C30.6767 24.78 29.125 24.3775 27.795 23.5725C26.465 22.7675 25.4325 21.6767 24.6975 20.3C23.9625 18.9233 23.595 17.4067 23.595 15.75C23.595 14.07 23.945 12.5475 24.645 11.1825C25.345 9.8175 26.3483 8.7325 27.655 7.9275C28.9617 7.1225 30.5017 6.72 32.275 6.72C34.0717 6.72 35.6175 7.1225 36.9125 7.9275C38.2075 8.7325 39.205 9.8175 39.905 11.1825C40.605 12.5475 40.955 14.07 40.955 15.75L40.955 16.8L26.29 16.8C26.43 17.8267 26.7625 18.7658 27.2875 19.6175C27.8125 20.4692 28.5183 21.1458 29.405 21.6475C30.2917 22.1492 31.3183 22.4 32.485 22.4C33.7217 22.4 34.76 22.1258 35.6 21.5775C36.44 21.0292 37.0933 20.3233 37.56 19.46L40.43 19.46C39.8233 21.0233 38.8608 22.3008 37.5425 23.2925C36.2242 24.2842 34.5267 24.78 32.45 24.78L32.45 24.78ZM26.325 14.35L38.225 14.35C37.9917 12.8567 37.3617 11.6083 36.335 10.605C35.3083 9.60167 33.955 9.1 32.275 9.1C30.595 9.1 29.2475 9.60167 28.2325 10.605C27.2175 11.6083 26.5817 12.8567 26.325 14.35L26.325 14.35ZM46.175 24.5L46.175 0L48.8 0L48.8 24.5L46.175 24.5ZM55.35 24.5L55.35 0L57.975 0L57.975 24.5L55.35 24.5ZM72.295 24.78C70.5217 24.78 68.97 24.3775 67.64 23.5725C66.31 22.7675 65.2775 21.6767 64.5425 20.3C63.8075 18.9233 63.44 17.4067 63.44 15.75C63.44 14.07 63.79 12.5475 64.49 11.1825C65.19 9.8175 66.1933 8.7325 67.5 7.9275C68.8067 7.1225 70.3467 6.72 72.12 6.72C73.9167 6.72 75.4625 7.1225 76.7575 7.9275C78.0525 8.7325 79.05 9.8175 79.75 11.1825C80.45 12.5475 80.8 14.07 80.8 15.75L80.8 16.8L66.135 16.8C66.275 17.8267 66.6075 18.7658 67.1325 19.6175C67.6575 20.4692 68.3633 21.1458 69.25 21.6475C70.1367 22.1492 71.1633 22.4 72.33 22.4C73.5667 22.4 74.605 22.1258 75.445 21.5775C76.285 21.0292 76.9383 20.3233 77.405 19.46L80.275 19.46C79.6683 21.0233 78.7058 22.3008 77.3875 23.2925C76.0692 24.2842 74.3717 24.78 72.295 24.78L72.295 24.78ZM66.17 14.35L78.07 14.35C77.8367 12.8567 77.2067 11.6083 76.18 10.605C75.1533 9.60167 73.8 9.1 72.12 9.1C70.44 9.1 69.0925 9.60167 68.0775 10.605C67.0625 11.6083 66.4267 12.8567 66.17 14.35L66.17 14.35ZM86.02 24.5L86.02 7L88.645 7L88.645 11.305C88.7383 11.0017 88.9192 10.5992 89.1875 10.0975C89.4558 9.59583 89.8467 9.08834 90.36 8.575C90.8733 8.06167 91.5208 7.62417 92.3025 7.2625C93.0842 6.90084 94.0117 6.72 95.085 6.72L95.26 6.72L95.26 9.345L94.945 9.345C93.6383 9.345 92.5125 9.70083 91.5675 10.4125C90.6225 11.1242 89.8992 12.0458 89.3975 13.1775C88.8958 14.3092 88.645 15.5167 88.645 16.8L88.645 24.5L86.02 24.5ZM106.465 24.78C104.855 24.78 103.496 24.5117 102.387 23.975C101.279 23.4383 100.433 22.7325 99.85 21.8575C99.2667 20.9825 98.94 20.0317 98.87 19.005L101.6 19.005C101.67 19.5883 101.874 20.1542 102.212 20.7025C102.551 21.2508 103.07 21.6942 103.77 22.0325C104.47 22.3708 105.38 22.54 106.5 22.54C106.85 22.54 107.282 22.505 107.795 22.435C108.308 22.365 108.804 22.2367 109.282 22.05C109.761 21.8633 110.163 21.5833 110.49 21.21C110.817 20.8367 110.98 20.3583 110.98 19.775C110.98 19.0517 110.7 18.4917 110.14 18.095C109.58 17.6983 108.857 17.3892 107.97 17.1675C107.083 16.9458 106.144 16.73 105.152 16.52C104.161 16.31 103.222 16.0358 102.335 15.6975C101.448 15.3592 100.725 14.8808 100.165 14.2625C99.605 13.6442 99.325 12.7983 99.325 11.725C99.325 10.1383 99.9025 8.9075 101.057 8.0325C102.212 7.1575 103.922 6.72 106.185 6.72C107.725 6.72 108.979 6.95917 109.948 7.4375C110.916 7.91583 111.651 8.52833 112.152 9.275C112.654 10.0217 112.952 10.8267 113.045 11.69L110.385 11.69C110.292 10.9433 109.924 10.3017 109.282 9.765C108.641 9.22833 107.585 8.96 106.115 8.96C103.338 8.96 101.95 9.8 101.95 11.48C101.95 12.18 102.23 12.7167 102.79 13.09C103.35 13.4633 104.073 13.7608 104.96 13.9825C105.847 14.2042 106.786 14.4142 107.777 14.6125C108.769 14.8108 109.708 15.085 110.595 15.435C111.482 15.785 112.205 16.2808 112.765 16.9225C113.325 17.5642 113.605 18.4333 113.605 19.53C113.605 21.2333 112.957 22.5342 111.662 23.4325C110.367 24.3308 108.635 24.78 106.465 24.78L106.465 24.78ZM127.82 24.78C125.533 24.78 123.678 24.4708 122.255 23.8525C120.832 23.2342 119.764 22.3767 119.052 21.28C118.341 20.1833 117.927 18.9467 117.81 17.57L120.54 17.57C120.61 18.69 120.983 19.5942 121.66 20.2825C122.337 20.9708 123.229 21.4783 124.337 21.805C125.446 22.1317 126.665 22.295 127.995 22.295C129.955 22.295 131.507 21.9508 132.65 21.2625C133.793 20.5742 134.365 19.5533 134.365 18.2C134.365 17.3833 134.079 16.7242 133.508 16.2225C132.936 15.7208 132.178 15.3067 131.232 14.98C130.288 14.6533 129.255 14.3558 128.135 14.0875C127.015 13.8192 125.889 13.5333 124.757 13.23C123.626 12.9267 122.587 12.5417 121.642 12.075C120.698 11.6083 119.939 11.0075 119.367 10.2725C118.796 9.5375 118.51 8.59833 118.51 7.455C118.51 5.565 119.239 4.025 120.698 2.835C122.156 1.645 124.332 1.05 127.225 1.05C129.278 1.05 130.97 1.35917 132.3 1.9775C133.63 2.59583 134.628 3.40667 135.293 4.41C135.957 5.41334 136.325 6.49833 136.395 7.665L133.7 7.665C133.56 6.49833 132.977 5.5125 131.95 4.7075C130.923 3.9025 129.348 3.5 127.225 3.5C125.918 3.5 124.857 3.62834 124.04 3.885C123.223 4.14166 122.599 4.47416 122.168 4.8825C121.736 5.29083 121.444 5.71667 121.293 6.16C121.141 6.60333 121.065 7.02334 121.065 7.42C121.065 8.19 121.351 8.81417 121.922 9.2925C122.494 9.77083 123.252 10.1675 124.198 10.4825C125.142 10.7975 126.187 11.0833 127.33 11.34C128.473 11.5967 129.611 11.8825 130.742 12.1975C131.874 12.5125 132.913 12.9092 133.857 13.3875C134.802 13.8658 135.561 14.4783 136.133 15.225C136.704 15.9717 136.99 16.9283 136.99 18.095C136.99 20.2417 136.173 21.8925 134.54 23.0475C132.907 24.2025 130.667 24.78 127.82 24.78L127.82 24.78ZM142.49 31.43L142.49 7L145.115 7L145.115 9.8C145.768 8.84333 146.614 8.09083 147.652 7.5425C148.691 6.99417 149.933 6.72 151.38 6.72C153.083 6.72 154.571 7.1225 155.842 7.9275C157.114 8.7325 158.1 9.8175 158.8 11.1825C159.5 12.5475 159.85 14.07 159.85 15.75C159.85 17.4067 159.5 18.9233 158.8 20.3C158.1 21.6767 157.114 22.7675 155.842 23.5725C154.571 24.3775 153.083 24.78 151.38 24.78C149.933 24.78 148.691 24.4942 147.652 23.9225C146.614 23.3508 145.768 22.5983 145.115 21.665L145.115 31.43L142.49 31.43ZM151.03 22.4C152.337 22.4 153.451 22.0967 154.372 21.49C155.294 20.8833 156 20.0725 156.49 19.0575C156.98 18.0425 157.225 16.94 157.225 15.75C157.225 14.5367 156.98 13.4283 156.49 12.425C156 11.4217 155.294 10.6167 154.372 10.01C153.451 9.40334 152.337 9.1 151.03 9.1C149.747 9.1 148.65 9.40334 147.74 10.01C146.83 10.6167 146.142 11.4217 145.675 12.425C145.208 13.4283 144.975 14.5367 144.975 15.75C144.975 16.94 145.208 18.0425 145.675 19.0575C146.142 20.0725 146.83 20.8833 147.74 21.49C148.65 22.0967 149.747 22.4 151.03 22.4L151.03 22.4ZM172.7 24.78C170.997 24.78 169.509 24.3775 168.237 23.5725C166.966 22.7675 165.98 21.6767 165.28 20.3C164.58 18.9233 164.23 17.4067 164.23 15.75C164.23 14.07 164.58 12.5475 165.28 11.1825C165.98 9.8175 166.966 8.7325 168.237 7.9275C169.509 7.1225 170.997 6.72 172.7 6.72C174.147 6.72 175.389 7 176.427 7.56C177.466 8.12 178.312 8.87834 178.965 9.835L178.965 7L181.59 7L181.59 24.5L178.965 24.5L178.965 21.7C178.312 22.6333 177.466 23.38 176.427 23.94C175.389 24.5 174.147 24.78 172.7 24.78L172.7 24.78ZM173.05 22.4C174.357 22.4 175.459 22.0967 176.358 21.49C177.256 20.8833 177.938 20.0725 178.405 19.0575C178.872 18.0425 179.105 16.94 179.105 15.75C179.105 14.5367 178.872 13.4283 178.405 12.425C177.938 11.4217 177.256 10.6167 176.358 10.01C175.459 9.40334 174.357 9.1 173.05 9.1C171.767 9.1 170.658 9.40334 169.725 10.01C168.792 10.6167 168.08 11.4217 167.59 12.425C167.1 13.4283 166.855 14.5367 166.855 15.75C166.855 16.94 167.1 18.0425 167.59 19.0575C168.08 20.0725 168.792 20.8833 169.725 21.49C170.658 22.0967 171.767 22.4 173.05 22.4L173.05 22.4ZM188.14 24.5L188.14 7L190.765 7L190.765 11.305C190.858 11.0017 191.039 10.5992 191.307 10.0975C191.576 9.59583 191.967 9.08834 192.48 8.575C192.993 8.06167 193.641 7.62417 194.422 7.2625C195.204 6.90084 196.132 6.72 197.205 6.72L197.38 6.72L197.38 9.345L197.065 9.345C195.758 9.345 194.633 9.70083 193.688 10.4125C192.742 11.1242 192.019 12.0458 191.517 13.1775C191.016 14.3092 190.765 15.5167 190.765 16.8L190.765 24.5L188.14 24.5ZM202.215 24.5L202.215 0L204.84 0L204.84 15.68L213.275 7L216.95 7L209.915 13.895L217.475 24.5L214.255 24.5L208.13 15.715L204.84 18.97L204.84 24.5L202.215 24.5Z" fill="#FFFFFF" stroke-width="1" stroke="#FFFFFF" transform="translate(83.662 20.146)" />
  </g>
</svg>
